<?xml version="1.0" encoding="UTF-8" standalone="no"?>
<svg
   xmlns:dc="http://purl.org/dc/elements/1.1/"
   xmlns:cc="http://creativecommons.org/ns#"
   xmlns:rdf="http://www.w3.org/1999/02/22-rdf-syntax-ns#"
   xmlns:svg="http://www.w3.org/2000/svg"
   xmlns="http://www.w3.org/2000/svg"
   xmlns:sodipodi="http://sodipodi.sourceforge.net/DTD/sodipodi-0.dtd"
   xmlns:inkscape="http://www.inkscape.org/namespaces/inkscape"
   id="OBJECTS"
   viewBox="0 0 581.2 420.59"
   version="1.1"
   sodipodi:docname="HeaderLogo.svg"
   inkscape:version="1.0.1 (3bc2e813f5, 2020-09-07)">
  <metadata
     id="metadata240">
    <rdf:RDF>
      <cc:Work
         rdf:about="">
        <dc:format>image/svg+xml</dc:format>
        <dc:type
           rdf:resource="http://purl.org/dc/dcmitype/StillImage" />
      </cc:Work>
    </rdf:RDF>
  </metadata>
  <sodipodi:namedview
     pagecolor="#ffffff"
     bordercolor="#666666"
     borderopacity="1"
     objecttolerance="10"
     gridtolerance="10"
     guidetolerance="10"
     inkscape:pageopacity="0"
     inkscape:pageshadow="2"
     inkscape:window-width="2560"
     inkscape:window-height="1354"
     id="namedview238"
     showgrid="false"
     inkscape:zoom="2.1231933"
     inkscape:cx="291.54198"
     inkscape:cy="210.295"
     inkscape:window-x="0"
     inkscape:window-y="50"
     inkscape:window-maximized="1"
     inkscape:current-layer="OBJECTS"
     inkscape:document-rotation="0" />
  <defs
     id="defs131">
    <style
       id="style129">.cls-1{font-size:52px;}.cls-1,.cls-11,.cls-18,.cls-19,.cls-20,.cls-23{fill:current;}.cls-1,.cls-11,.cls-20,.cls-23{font-family:Assistant;}.cls-2{letter-spacing:-0.05em;}.cls-3{letter-spacing:-0.05em;}.cls-4{letter-spacing:-0.1em;}.cls-5{letter-spacing:-0.02em;}.cls-6{letter-spacing:0.04em;}.cls-7{letter-spacing:-0.04em;}.cls-8{letter-spacing:-0.03em;}.cls-9{letter-spacing:-0.02em;}.cls-10{letter-spacing:-0.04em;}.cls-11,.cls-20,.cls-23{font-size:28px;}.cls-11{letter-spacing:-0.02em;}.cls-12{letter-spacing:-0.02em;}.cls-13{letter-spacing:0.02em;}.cls-14{letter-spacing:-0.01em;}.cls-15{letter-spacing:-0.03em;}.cls-16{letter-spacing:0.03em;}.cls-17{letter-spacing:0.02em;}.cls-18{font-size:26.37px;font-family:Montserrat-Bold, Montserrat;font-weight:700;}.cls-20{letter-spacing:0em;}.cls-21{letter-spacing:-0.04em;}.cls-22{letter-spacing:0.02em;}.cls-23{letter-spacing:0.02em;}</style>
  </defs>
  <title
     id="title133">tchalogo</title>
  <text
     class="cls-1"
     id="text161"
     x="74.620804"
     y="313.76999"
     style="line-height:1;letter-spacing:0px"><tspan
       class="cls-2"
       id="tspan135"
       style="font-style:normal;font-variant:normal;font-weight:bold;font-stretch:normal;font-size:53.3333px;font-family:Assistant;-inkscape-font-specification:'Assistant Bold'">THE COFFEE HOUSE</tspan></text>
  <text
     class="cls-11"
     id="text175"
     x="227.31"
     y="356.12"><tspan
       style="font-style:normal;font-variant:normal;font-weight:normal;font-stretch:normal;font-family:Assistant;-inkscape-font-specification:Assistant"
       id="tspan248">ADDU CITY</tspan></text>
  <text
     class="cls-18"
     transform="translate(181.07 381.29) rotate(31.93)"
     id="text177">F</text>
  <text
     class="cls-18"
     transform="translate(196.95 391.14) rotate(25.31)"
     id="text179">R</text>
  <text
     class="cls-18"
     transform="translate(216.14 400.04) rotate(18.97)"
     id="text181">E</text>
  <text
     class="cls-18"
     transform="translate(234.45 406.21) rotate(13.34)"
     id="text183">S</text>
  <text
     class="cls-18"
     transform="translate(252.47 410.51) rotate(7.38)"
     id="text185">H</text>
  <text
     class="cls-18"
     transform="translate(275.01 413.11) rotate(2.99)"
     id="text187" />
  <text
     class="cls-18"
     transform="translate(283.68 413.72) rotate(-1.01)"
     id="text189">C</text>
  <text
     class="cls-18"
     transform="translate(304.32 413.37) rotate(-7.13)"
     id="text191">O</text>
  <text
     class="cls-18"
     transform="matrix(0.97, -0.23, 0.23, 0.97, 328.09, 410.17)"
     id="text193">F</text>
  <text
     class="cls-18"
     transform="translate(346.02 405.88) rotate(-18.72)"
     id="text195">F</text>
  <text
     class="cls-18"
     transform="translate(363.57 399.88) rotate(-24.61)"
     id="text197">E</text>
  <text
     class="cls-18"
     transform="matrix(0.86, -0.52, 0.52, 0.86, 381.24, 391.68)"
     id="text199">E</text>
  <polygon
     class="cls-19"
     points="170.64 340.49 174.26 347.81 182.34 348.98 176.49 354.68 177.87 362.73 170.64 358.93 163.42 362.73 164.8 354.68 158.95 348.98 167.03 347.81 170.64 340.49"
     id="polygon201" />
  <polygon
     class="cls-19"
     points="410.95 340.49 414.56 347.81 422.64 348.98 416.79 354.68 418.17 362.73 410.95 358.93 403.72 362.73 405.1 354.68 399.26 348.98 407.33 347.81 410.95 340.49"
     id="polygon203" />
  <path
     class="cls-19"
     d="M91.38,286.81a2.36,2.36,0,0,0,4.71,0V255.74H91.38Z"
     transform="translate(40.6 -43.21)"
     id="path205" />
  <path
     class="cls-19"
     d="M404.65,287.71a2.36,2.36,0,1,0,4.71,0v-32h-4.71Z"
     transform="translate(40.6 -43.21)"
     id="path207" />
  <path
     class="cls-19"
     d="M334.87,204.61c-.53-.06-1.06-.07-1.59-.09a2.94,2.94,0,0,0-2.94-2.65H173.54a3,3,0,0,0-3,3c.26,40,5,76.52,51.92,86.69H160.37a1.77,1.77,0,0,0,0,3.53h185a1.77,1.77,0,1,0,0-3.53h-66c14.54-3.34,25.93-9.7,34.4-19.15l35-11.76a3,3,0,0,0,1-.6c12-10.7,14-30.31,4.46-43.7A27.56,27.56,0,0,0,334.87,204.61Zm-158.33,3.2H327.27c-.08,2.37-.2,4.69-.34,7H215.26a1.51,1.51,0,0,0,0,3H326.71v.05c-3.33,42.83-19.29,70.54-74.74,70.54-32.22,0-53.21-8.22-64.16-25.11C178.13,248.32,176.77,227.85,176.54,207.81Zm156.3,8.13a14.67,14.67,0,0,1,8.92,6.43,25.22,25.22,0,0,1,3.82,13.4,18.28,18.28,0,0,1-1.1,7.2c-1.91,4.69-6.53,7.45-10.34,9.33-1.89.94-3.86,1.82-5.77,2.67-1.53.68-3.08,1.38-4.62,2.12C329.7,244.23,332,229.46,332.84,215.94Zm13.45,39.26L320,264c.48-.77.93-1.56,1.38-2.36,2.67-1.46,5.46-2.72,8.19-3.93,1.94-.87,3.93-1.76,5.88-2.72,4.29-2.12,9.5-5.27,11.8-10.91a21,21,0,0,0,1.32-8.39,28.2,28.2,0,0,0-4.33-15A17.55,17.55,0,0,0,333,212.91c0-.82.08-1.64.11-2.45.37,0,.73,0,1.09.06a21.7,21.7,0,0,1,15.22,9.28C357.18,230.63,355.74,246.37,346.29,255.2Z"
     transform="translate(40.6 -43.21)"
     id="path209" />
  <path
     class="cls-19"
     d="M193.1,215.18H182.52a1.59,1.59,0,1,0,0,3.18H193.1a1.59,1.59,0,0,0,0-3.18Z"
     transform="translate(40.6 -43.21)"
     id="path211" />
  <path
     class="cls-19"
     d="M315.63,245.53a1.51,1.51,0,0,0,.58.12,1.53,1.53,0,0,0,1.4-.93l1.66-3.95a1.51,1.51,0,1,0-2.78-1.17l-1.67,4A1.51,1.51,0,0,0,315.63,245.53Z"
     transform="translate(40.6 -43.21)"
     id="path213" />
  <path
     class="cls-19"
     d="M272.46,281.92a1.52,1.52,0,0,0,.42-.06,85.3,85.3,0,0,0,28.54-14.43,47.36,47.36,0,0,0,9.05-8.68,32.24,32.24,0,0,0,4.07-6.9,1.51,1.51,0,1,0-2.78-1.19,29.37,29.37,0,0,1-3.68,6.25,44.45,44.45,0,0,1-8.49,8.12A82.36,82.36,0,0,1,272.05,279a1.51,1.51,0,0,0,.41,3Z"
     transform="translate(40.6 -43.21)"
     id="path215" />
  <path
     class="cls-19"
     d="M367.69,154.48c-4.63,1.89-10.07-.65-12.9-2.34-1.6-.95-3.12-2-4.74-3.13a48.61,48.61,0,0,0-9-5.34c-7.23-3-16-2.76-24.1.75-6.68,2.9-12.91,7.92-18.53,14.91a106.11,106.11,0,0,0-14.37,23.37,14,14,0,0,0-1.56,7.32,2.39,2.39,0,0,0,1.8,2,2.33,2.33,0,0,0,.59.08,2.4,2.4,0,0,0,2-1c2.32-3.27,4.8-6.48,7.37-9.53a25.87,25.87,0,0,1,5.27-5.06c.79-.53,1.55-1.1,2.31-1.67a22.25,22.25,0,0,1,4-2.62c2.37-1.06,5.2-1.49,9.22-1.42,7.19.14,14.44,1.72,21.44,3.25,3.33.72,7.09,1.54,10.91.92,4.69-.76,8.69-3.61,11.91-5.91,4.09-2.91,8.73-6.22,11.41-11.23a2.41,2.41,0,0,0-3-3.37Zm-10.63,10.29a31.45,31.45,0,0,1-3.49.91,14.27,14.27,0,0,1-3.89.24,45.44,45.44,0,0,0,8.4-1.87Zm-14-13.33c1,.29,2.13.59,3.22.83l1,.69,2.41,1.65c-.16,0-.32.06-.48.11a19.79,19.79,0,0,0-3.8,1.78c-.59.33-1.17.66-1.77.95a16.85,16.85,0,0,1-7.42,1.67l-1.46-.61c-1.46-.61-3-1.24-4.53-1.77a33.13,33.13,0,0,0-6.94-1.54,7.31,7.31,0,0,0,1-.75,16.74,16.74,0,0,1,12.61-4.32A34.78,34.78,0,0,1,343.1,151.44Zm1.63,8.21c.64-.32,1.27-.67,1.89-1a17.64,17.64,0,0,1,3.33-1.58,8.13,8.13,0,0,1,3.26-.27,28.6,28.6,0,0,0,4.92,2.16c-5.85,2-11.34,3.08-16.68,1.91A18.93,18.93,0,0,0,344.73,159.65Zm-25.85-10.81c6.66-2.9,13.8-3.22,19.71-1-.48-.07-.95-.14-1.44-.18a19.16,19.16,0,0,0-14.47,5,28.73,28.73,0,0,1-4.13,2.41,25.86,25.86,0,0,0-6.22,1.06,32.14,32.14,0,0,0-8.37,4.11A43,43,0,0,1,318.88,148.84Zm-15,19a25.55,25.55,0,0,0-4.95,3.16c-.48.36-1,.72-1.47,1.07a53.35,53.35,0,0,1,7.85-6.92,29.44,29.44,0,0,1,8.44-4.44c.56-.17,1.13-.31,1.71-.43a35.72,35.72,0,0,0,3.58.28c3.3.11,6.19,2.62,8.72,5.06.75.72,1.53,1.46,2.34,2.17a87.26,87.26,0,0,0-14.93-1.8A26,26,0,0,0,303.86,167.86Zm42.77,2.38a23,23,0,0,1-8.28-.69,1,1,0,0,0-.48-.19c-3.24-.49-5.88-3-8.52-5.57a32.77,32.77,0,0,0-4.06-3.4,28.17,28.17,0,0,1,3.41.91c1.41.48,2.77,1,4.22,1.65a44.61,44.61,0,0,0,7.3,2.56,24.15,24.15,0,0,0,3,.48,11.59,11.59,0,0,0,3,1.68,12.46,12.46,0,0,0,4.42.75c.32,0,.67,0,1,0A15.78,15.78,0,0,1,346.63,170.24Z"
     transform="translate(40.6 -43.21)"
     id="path217" />
  <path
     class="cls-19"
     d="M193.49,144.42c-8.09-3.51-16.88-3.79-24.11-.75a48.61,48.61,0,0,0-9,5.34c-1.61,1.12-3.14,2.18-4.73,3.13-2.84,1.69-8.28,4.23-12.91,2.34a2.41,2.41,0,0,0-3,3.37c2.68,5,7.32,8.32,11.41,11.23,3.39,2.41,7.22,5.15,11.91,5.91,3.83.62,7.59-.2,10.91-.92,7-1.53,14.26-3.11,21.44-3.25,4-.08,6.86.36,9.22,1.42a21.58,21.58,0,0,1,4,2.62c.76.57,1.52,1.14,2.31,1.67a26.34,26.34,0,0,1,5.27,5.06c2.58,3.06,5.06,6.26,7.37,9.53a2.41,2.41,0,0,0,2,1,2.32,2.32,0,0,0,.58-.08,2.39,2.39,0,0,0,1.8-2,13.92,13.92,0,0,0-1.56-7.32A106.11,106.11,0,0,0,212,159.33C206.39,152.34,200.16,147.32,193.49,144.42Zm-1.92,4.42a43,43,0,0,1,14.92,11.4,32.09,32.09,0,0,0-8.36-4.11,26,26,0,0,0-6.23-1.06,28.49,28.49,0,0,1-4.12-2.41,19.18,19.18,0,0,0-14.48-5c-.48,0-1,.11-1.43.18C177.78,145.62,184.91,145.94,191.57,148.84Zm-38.18,15.93-1.06-.76a45.83,45.83,0,0,0,8.41,1.92,14.49,14.49,0,0,1-3.86-.25A32,32,0,0,1,153.39,164.77Zm-1.06-5.83a28.51,28.51,0,0,0,4.91-2.16,8.13,8.13,0,0,1,3.26.27,17.36,17.36,0,0,1,3.33,1.58c.63.35,1.26.7,1.9,1a18.82,18.82,0,0,0,3.27,1.2C163.66,162,158.18,160.94,152.33,158.94Zm23.35-.43-1.47.61a16.64,16.64,0,0,1-7.41-1.67c-.6-.29-1.19-.62-1.77-.95a20.37,20.37,0,0,0-3.8-1.78c-.16-.05-.33-.06-.49-.11.82-.55,1.62-1.1,2.41-1.65.33-.24.66-.46,1-.69,1.09-.24,2.16-.54,3.22-.83a34.86,34.86,0,0,1,6.15-1.31,16.82,16.82,0,0,1,12.61,4.32,7.52,7.52,0,0,0,1,.75,33,33,0,0,0-6.94,1.54C178.65,157.27,177.14,157.9,175.68,158.51Zm-11.86,11.73a15.78,15.78,0,0,1-5-1.87c.34,0,.68,0,1,0a12.5,12.5,0,0,0,4.42-.75,11.92,11.92,0,0,0,3-1.67,24.64,24.64,0,0,0,3-.49,44.61,44.61,0,0,0,7.3-2.56c1.45-.6,2.82-1.17,4.22-1.65a28.48,28.48,0,0,1,3.43-.91,32.57,32.57,0,0,0-4.16,3.49c-2.55,2.45-5.2,5-8.43,5.48a1.09,1.09,0,0,0-.49.19A23,23,0,0,1,163.82,170.24Zm42.78-2.38A24.73,24.73,0,0,0,196.39,166h-1.08a87.38,87.38,0,0,0-14.94,1.8c.84-.73,1.64-1.5,2.43-2.25,2.44-2.36,5.33-4.87,8.64-5,1.17,0,2.41-.12,3.58-.28.58.12,1.14.26,1.7.43a29.31,29.31,0,0,1,8.44,4.44,54,54,0,0,1,7.86,6.92c-.5-.35-1-.7-1.47-1.07A25.55,25.55,0,0,0,206.6,167.86Z"
     transform="translate(40.6 -43.21)"
     id="path219" />
  <path
     class="cls-19"
     d="M253,182.5a3.24,3.24,0,0,0,.76.11h.11l.52,0,.52,0H255a3.09,3.09,0,0,0,.75-.11c10.84-.75,19.13-4.58,24.67-11.42,9.7-12,7.3-28.76,7-30.6-1.14-12.43-14.82-36.71-16.73-39.74-1.52-2.4-9.56-17-13.6-24.41a3.09,3.09,0,0,0-2.48-1.59h-.55a3,3,0,0,0-2.45,1.64c-3.25,6.22-12,22.92-13.56,25.38-.15.25-15.53,25.51-16.74,38.71-.3,1.84-2.7,18.63,7,30.6C233.89,177.92,242.18,181.75,253,182.5Zm-25.57-41.1,0-.27c.89-10.38,13.54-32.44,15.83-36.07,1.43-2.26,7.57-13.9,11.17-20.77,3.61,6.57,9.64,17.51,11,19.74,2.58,4.08,14.93,26.78,15.82,37.1a1.24,1.24,0,0,0,0,.27c0,.16,2.61,15.55-5.7,25.8-4.47,5.52-11.43,8.57-20.66,9.15v.09c-9.83-.37-17.18-3.47-21.85-9.21C224.86,157,227.41,141.55,227.44,141.4Z"
     transform="translate(40.6 -43.21)"
     id="path221" />
  <path
     class="cls-19"
     d="M256.87,172.44l.22,0A25.58,25.58,0,0,0,275,160.7a27.05,27.05,0,0,0,3-21.18,1.56,1.56,0,1,0-3,.83A23.86,23.86,0,0,1,272.32,159a22.34,22.34,0,0,1-15.67,10.28,1.57,1.57,0,0,0,.22,3.12Z"
     transform="translate(40.6 -43.21)"
     id="path223" />
  <path
     class="cls-19"
     d="M272.72,132.43a1.55,1.55,0,0,0,1.43.94,1.68,1.68,0,0,0,.62-.13,1.56,1.56,0,0,0,.81-2.06c-1-2.35-2.12-4.7-3.27-7a1.57,1.57,0,0,0-2.8,1.4C270.63,127.83,271.71,130.13,272.72,132.43Z"
     transform="translate(40.6 -43.21)"
     id="path225" />
  <path
     class="cls-19"
     d="M409.36,186.64c0-79.09-64.34-143.43-143.43-143.43H234.81c-79.09,0-143.43,64.34-143.43,143.43v23.84h4.71V186.64c0-76.49,62.23-138.72,138.72-138.72h31.12c76.49,0,138.72,62.23,138.72,138.72v23.84h4.71Z"
     transform="translate(40.6 -43.21)"
     id="path227" />
  <text
     class="cls-20"
     id="text233"
     x="106.93"
     y="199.87"><tspan
       style="font-style:normal;font-variant:normal;font-weight:bold;font-stretch:normal;font-family:Assistant;-inkscape-font-specification:'Assistant Bold'"
       id="tspan242">EST.</tspan></text>
  <text
     class="cls-23"
     id="text235"
     x="418.82999"
     y="197.87"><tspan
       style="font-style:normal;font-variant:normal;font-weight:bold;font-stretch:normal;font-family:Assistant;-inkscape-font-specification:'Assistant Bold'"
       id="tspan244">2020</tspan></text>
</svg>
